<svg viewBox="0 0 1000 1000" xmlns="http://www.w3.org/2000/svg"><defs><clipPath id="b"><path fill="currentColor" d="M952.5 647Q905 794 780 885t-280 91q-155 0-280-91T47.5 647Q0 500 47.5 353T220 115q125-91 280-91t280 91q125 91 172.5 238t0 294Z"/></clipPath><pattern id="c" patternUnits="userSpaceOnUse" width="25" height="25" viewBox="0 0 100 100" fill="#212121"><circle cx="50" cy="50" r="12.5"/></pattern><filter id="a" x="-50vw" y="-50vh" width="100vw" height="100vh"><feFlood flood-color="#fff" result="neutral-gray"/><feTurbulence type="fractalNoise" baseFrequency="2.5" numOctaves="100" stitchTiles="stitch" result="noise"/><feColorMatrix in="noise" type="saturate" values="0" result="destaturatedNoise"/><feComponentTransfer in="desaturatedNoise" result="theNoise"><feFuncA type="table" tableValues="0 0 0.1 0"/></feComponentTransfer><feBlend in="SourceGraphic" in2="theNoise" mode="soft-light" result="noisy-image"/></filter></defs><g filter="url(#a)" clip-path="url(#b)"><path fill="url(#c)" d="M952.5 647Q905 794 780 885t-280 91q-155 0-280-91T47.5 647Q0 500 47.5 353T220 115q125-91 280-91t280 91q125 91 172.5 238t0 294Z"/></g></svg>